PathFileType	4	(x/y/z)	S04_PSF_T10.trc
DataRate	CameraRate	NumFrames	NumMarkers	Units	OrigDataRate	OrigDataStartFrame	OrigNumFrames
240	240	10	51	mm	240	266	425
Frame#	Time	Sternum			R.Acromium			L.Acromium			Top.Head			R.ASIS			L.ASIS			R.PSIS			L.PSIS			R.Great.Tro			L.Great.Tro			R.Iliac.Crest			L.Iliac.Crest			V.Sacral			R.Thigh.Upper.Post			R.Thigh.Lower.Ant			R.Thigh.Lower.Post			R.Thigh.Upper.Ant			R.Knee.Lat			R.Knee.Med			R.Shank.Upper.Post			R.Shank.Lower.Ant			R.Shank.Lower.Post			R.Shank.Upper.Ant			R.Ankle.Lat			R.Ankle.Med			R.Heel.Upper			R.Heel.Med			R.Heel.Lat			R.Toe.Lat			R.Toe.Med			R.Toe.Tip			L.Thigh.Upper.Post			L.Thigh.Lower.Ant			L.Thigh.Lower.Post			L.Thigh.Upper.Ant			L.Knee.Lat			L.Knee.Med			L.Shank.Upper.Post			L.Shank.Lower.Ant			L.Shank.Lower.Post			L.Shank.Upper.Ant			L.Ankle.Lat			L.Ankle.Med			L.Heel.Upper			L.Heel.Med			L.Heel.Lat			L.Toe.Lat			L.Toe.Med			L.Toe.Tip			Cervical.Spine			Back			
		X1	Y1	Z1	X2	Y2	Z2	X3	Y3	Z3	X4	Y4	Z4	X5	Y5	Z5	X6	Y6	Z6	X7	Y7	Z7	X8	Y8	Z8	X9	Y9	Z9	X10	Y10	Z10	X11	Y11	Z11	X12	Y12	Z12	X13	Y13	Z13	X14	Y14	Z14	X15	Y15	Z15	X16	Y16	Z16	X17	Y17	Z17	X18	Y18	Z18	X19	Y19	Z19	X20	Y20	Z20	X21	Y21	Z21	X22	Y22	Z22	X23	Y23	Z23	X24	Y24	Z24	X25	Y25	Z25	X26	Y26	Z26	X27	Y27	Z27	X28	Y28	Z28	X29	Y29	Z29	X30	Y30	Z30	X31	Y31	Z31	X32	Y32	Z32	X33	Y33	Z33	X34	Y34	Z34	X35	Y35	Z35	X36	Y36	Z36	X37	Y37	Z37	X38	Y38	Z38	X39	Y39	Z39	X40	Y40	Z40	X41	Y41	Z41	X42	Y42	Z42	X43	Y43	Z43	X44	Y44	Z44	X45	Y45	Z45	X46	Y46	Z46	X47	Y47	Z47	X48	Y48	Z48	X49	Y49	Z49	X50	Y50	Z50	X51	Y51	Z51	

266	1.1042	36.086	1247.8	279.53	-66.715	1476.7	467.17	-111.15	1461.8	119.73	-52.41	1803.7	275.3	-4.0762	962.33	435.3	5.4833	983.39	184.66	-209.19	1005.3	322.09	-199.29	1006.9	241.83	-108.65	891.21	490.61	-97.691	897.89	110	-85.238	1059.1	470.36	-101.38	1062.9	135.09	-226.19	964.97	282.2	-183.34	651.48	473.93	-135.17	552.3	436.82	-208.52	565.05	459.31	-94.561	653.84	459.09	-214.45	490.65	446.76	-236.9	496.61	320.28	-366.48	305.4	439.77	-330.78	209.91	394.61	-391.4	240.64	419.8	-308.21	274.6	421.21	-420.76	129.49	396.9	-403.59	140	308.34	-495.4	110.93	343.27	-492.8	79.439	313.54	-496.39	79.206	377.97	-332.21	40.227	425.87	-296.43	36.232	306.3	-231.06	42.624	353.56	-33.167	660.86	119.21	78.558	602.79	120.55	9.559	583.08	133.34	31.027	678.29	103.05	86.611	514.27	136.55	99.478	504.95	262.45	83.326	316.19	139.37	183.62	268.66	133.08	122.72	248.89	144.18	144.74	334.67	127.35	239.23	118.4	148.94	244.18	134.08	240.81	189.58	57.111	196.74	209.5	40.671	232.83	207.42	33.845	170.73	370.49	113.75	127.17	394.54	142.31	239.82	435.87	179.34	189.74	-135.53	1525.4	303.69	-223.4	1268.9	294.76
267	1.1083	42.198	1247.3	278.78	-60.656	1476.2	466.45	-105.4	1461.1	119.02	-46.555	1803.1	274.58	2.0744	961.71	434.87	11.966	982.97	184.17	-202.9	1004.7	321.35	-192.98	1006.4	241.07	-102.66	890.57	490.03	-91.012	897.58	109.37	-79.097	1058.6	469.8	-95.065	1062.3	134.53	-219.91	964.46	281.4	-177.58	651.02	473.47	-129.51	551.72	436.56	-202.88	564.63	458.87	-88.804	653.24	458.76	-209.05	490.15	446.42	-231.21	496.12	319.94	-363.02	306.43	439.76	-328.4	210.49	394.63	-388.67	241.91	419.82	-305.1	274.99	421.18	-419.43	131.09	397.19	-401.9	141.34	308.56	-494.14	113.32	343.54	-491.92	81.929	313.71	-495.52	81.528	378.16	-331.87	40.401	425.94	-296.28	36.308	306.38	-230.84	42.413	353.53	-26.202	660.7	118.79	85.553	602.72	120.73	16.502	582.94	133.06	38.048	678.2	103.09	93.379	513.96	136.52	105.75	504.68	262.35	88.651	315.88	139.25	188.56	267.58	133.34	127.48	248.29	144.18	150.23	333.87	127.51	242.8	117.21	149.23	247.73	132.8	241.16	192.59	56.925	196.97	212.19	40.199	233.03	210.04	33.428	170.92	373.81	111.55	127.67	397.98	139.74	240.34	439.67	176.46	190.34	-129.64	1524.8	302.99	-217.34	1268.3	294.24
268	1.1125	48.332	1246.9	278.02	-54.594	1475.7	465.71	-99.627	1460.5	118.3	-40.7	1802.6	273.85	8.2774	961.12	434.43	18.498	982.61	183.67	-196.56	1004.2	320.61	-186.63	1006	240.29	-96.601	889.95	489.44	-84.282	897.32	108.73	-72.907	1058.1	469.24	-88.714	1061.7	133.97	-213.58	963.99	280.59	-171.7	650.54	472.99	-123.7	551.14	436.28	-197.09	564.18	458.42	-82.929	652.66	458.4	-203.48	489.64	446.06	-225.35	495.6	319.59	-359.42	307.5	439.74	-325.9	211.12	394.64	-385.82	243.24	419.84	-301.88	275.42	421.15	-418.01	132.77	397.49	-400.1	142.74	308.79	-492.76	115.85	343.8	-490.95	84.552	313.87	-494.57	83.982	378.35	-331.51	40.598	426	-296.12	36.39	306.45	-230.63	42.209	353.48	-19.189	660.6	118.36	92.589	602.7	120.92	23.482	582.85	132.78	45.12	678.17	103.14	100.18	513.7	136.5	112.04	504.45	262.23	93.874	315.63	139.11	193.35	266.48	133.61	132.09	247.73	144.16	155.64	333.07	127.7	246.08	115.96	149.53	250.98	131.46	241.52	195.23	56.814	197.2	214.44	39.767	233.21	212.22	33.055	171.1	376.81	109.12	128.21	401.12	136.89	240.93	443.24	173.24	191	-123.75	1524.2	302.27	-211.27	1267.7	293.7
269	1.1167	54.487	1246.5	277.26	-48.531	1475.2	464.95	-93.84	1459.9	117.56	-34.846	1802.2	273.11	14.532	960.56	433.97	25.078	982.31	183.15	-190.17	1003.6	319.86	-180.24	1005.7	239.51	-90.476	889.33	488.82	-77.503	897.13	108.07	-66.668	1057.6	468.67	-82.324	1061.2	133.39	-207.2	963.57	279.77	-165.69	650.05	472.49	-117.72	550.56	435.99	-191.14	563.7	457.94	-76.933	652.1	458.02	-197.74	489.11	445.69	-219.33	495.06	319.22	-355.69	308.62	439.71	-323.29	211.79	394.66	-382.84	244.62	419.85	-298.54	275.91	421.12	-416.49	134.53	397.78	-398.18	144.21	309.02	-491.26	118.5	344.06	-489.87	87.318	314.01	-493.52	86.578	378.53	-331.14	40.821	426.05	-295.96	36.478	306.51	-230.42	42.011	353.43	-12.144	660.54	117.93	99.647	602.73	121.1	30.481	582.81	132.48	52.228	678.19	103.19	106.99	513.47	136.47	118.31	504.25	262.11	99.012	315.43	138.95	198.02	265.37	133.9	136.56	247.19	144.13	160.97	332.29	127.89	249.12	114.69	149.83	253.98	130.06	241.88	197.55	56.785	197.41	216.33	39.387	233.38	214.04	32.738	171.27	379.54	106.5	128.79	403.98	133.8	241.56	446.6	169.72	191.72	-117.86	1523.7	301.53	-205.17	1267.1	293.14
270	1.1208	60.663	1246.1	276.48	-42.47	1474.8	464.19	-88.037	1459.3	116.81	-28.992	1801.8	272.37	20.837	960.04	433.48	31.704	982.06	182.62	-183.75	1003.2	319.11	-173.81	1005.4	238.73	-84.285	888.73	488.19	-70.678	896.99	107.41	-60.38	1057.1	468.09	-75.893	1060.8	132.8	-200.77	963.18	278.94	-159.55	649.54	471.97	-111.58	549.98	435.69	-185.03	563.2	457.44	-70.811	651.54	457.62	-191.82	488.56	445.32	-213.12	494.5	318.85	-351.81	309.79	439.67	-320.55	212.51	394.67	-379.72	246.07	419.85	-295.08	276.44	421.1	-414.84	136.37	398.07	-396.13	145.74	309.27	-489.62	121.3	344.3	-488.67	90.232	314.15	-492.37	89.323	378.7	-330.74	41.075	426.1	-295.79	36.574	306.57	-230.21	41.816	353.36	-5.085	660.54	117.48	106.71	602.78	121.28	37.478	582.81	132.19	59.353	678.25	103.24	113.8	513.28	136.44	124.55	504.09	261.97	104.08	315.29	138.76	202.6	264.27	134.19	140.93	246.69	144.08	166.23	331.53	128.09	251.96	113.41	150.12	256.75	128.65	242.25	199.6	56.842	197.6	217.9	39.071	233.53	215.55	32.486	171.42	382.03	103.71	129.41	406.61	130.51	242.23	449.78	165.94	192.49	-111.96	1523.2	300.78	-199.06	1266.5	292.57
271	1.125	66.859	1245.8	275.7	-36.412	1474.5	463.42	-82.219	1458.8	116.05	-23.138	1801.5	271.63	27.191	959.56	432.99	38.37	981.88	182.07	-177.28	1002.8	318.36	-167.34	1005.2	237.95	-78.03	888.14	487.54	-63.813	896.92	106.75	-54.045	1056.7	467.51	-69.424	1060.4	132.2	-194.3	962.84	278.09	-153.28	649.01	471.43	-105.26	549.39	435.38	-178.75	562.68	456.92	-64.561	651	457.19	-185.72	487.99	444.93	-206.73	493.91	318.46	-347.77	311.01	439.61	-317.68	213.28	394.69	-376.45	247.59	419.84	-291.49	277.02	421.08	-413.07	138.3	398.36	-393.94	147.33	309.52	-487.83	124.25	344.53	-487.34	93.302	314.27	-491.1	92.227	378.85	-330.31	41.364	426.14	-295.6	36.68	306.61	-230.01	41.624	353.29	1.9727	660.6	117.03	113.75	602.86	121.44	44.457	582.86	131.87	66.479	678.35	103.29	120.59	513.13	136.39	130.75	503.94	261.82	109.09	315.2	138.53	207.09	263.19	134.48	145.22	246.24	143.98	171.45	330.81	128.28	254.63	112.13	150.4	259.34	127.24	242.6	201.43	56.989	197.77	219.2	38.827	233.65	216.8	32.305	171.54	384.33	100.8	130.06	409.04	127.07	242.93	452.82	161.95	193.29	-106.06	1522.8	300.02	-192.94	1266	291.99
272	1.1292	73.074	1245.6	274.92	-30.359	1474.2	462.64	-76.385	1458.4	115.27	-17.282	1801.2	270.88	33.591	959.11	432.47	45.072	981.77	181.51	-170.78	1002.4	317.62	-160.84	1005	237.18	-71.712	887.57	486.87	-56.912	896.91	106.08	-47.666	1056.4	466.92	-62.92	1060.1	131.6	-187.79	962.54	277.25	-146.87	648.46	470.88	-98.772	548.81	435.06	-172.31	562.12	456.38	-58.178	650.47	456.75	-179.44	487.4	444.54	-200.15	493.3	318.06	-343.58	312.28	439.53	-314.66	214.1	394.7	-373.03	249.17	419.81	-287.75	277.66	421.06	-411.15	140.31	398.64	-391.61	148.99	309.77	-485.87	127.35	344.74	-485.86	96.536	314.37	-489.69	95.299	378.99	-329.87	41.694	426.17	-295.4	36.8	306.64	-229.81	41.432	353.21	9.0138	660.69	116.56	120.76	602.96	121.58	51.402	582.95	131.55	73.592	678.47	103.32	127.35	513.02	136.33	136.87	503.82	261.66	114.05	315.16	138.26	211.52	262.14	134.76	149.44	245.83	143.85	176.62	330.13	128.46	257.16	110.88	150.66	261.79	125.84	242.93	203.1	57.225	197.9	220.29	38.662	233.74	217.84	32.199	171.64	386.45	97.8	130.71	411.31	123.51	243.64	455.74	157.79	194.11	-100.17	1522.4	299.24	-186.8	1265.5	291.39
273	1.1333	79.305	1245.4	274.13	-24.314	1473.9	461.86	-70.537	1458	114.48	-11.426	1801	270.12	40.035	958.71	431.94	51.803	981.72	180.94	-164.25	1002	316.87	-154.31	1004.9	236.41	-65.333	887.03	486.18	-49.985	896.96	105.41	-41.244	1056.1	466.33	-56.382	1059.8	130.98	-181.24	962.29	276.4	-140.33	647.9	470.31	-92.099	548.22	434.75	-165.69	561.54	455.83	-51.658	649.95	456.31	-172.96	486.79	444.15	-193.38	492.66	317.66	-339.21	313.6	439.44	-311.49	214.98	394.71	-369.43	250.81	419.78	-283.85	278.35	421.05	-409.07	142.42	398.91	-389.11	150.72	310.02	-483.73	130.62	344.94	-484.21	99.942	314.45	-488.14	98.549	379.11	-329.39	42.07	426.19	-295.17	36.937	306.65	-229.62	41.239	353.12	16.025	660.84	116.07	127.72	603.08	121.69	58.298	583.07	131.2	80.678	678.63	103.33	134.06	512.95	136.25	142.93	503.73	261.47	118.98	315.18	137.94	215.91	261.15	135.02	153.61	245.49	143.67	181.76	329.49	128.63	259.59	109.66	150.89	264.11	124.47	243.23	204.62	57.544	198	221.2	38.578	233.8	218.71	32.169	171.71	388.43	94.728	131.36	413.42	119.89	244.34	458.55	153.5	194.92	-94.271	1522.1	298.46	-180.64	1265.1	290.78
274	1.1375	85.552	1245.3	273.34	-18.278	1473.7	461.07	-64.676	1457.6	113.69	-5.5675	1800.8	269.37	46.518	958.36	431.39	58.557	981.74	180.36	-157.69	1001.7	316.14	-147.75	1004.8	235.65	-58.896	886.5	485.48	-43.04	897.07	104.74	-34.783	1055.8	465.73	-49.816	1059.6	130.36	-174.66	962.09	275.55	-133.64	647.31	469.73	-85.24	547.63	434.43	-158.9	560.92	455.26	-44.996	649.45	455.85	-166.29	486.17	443.76	-186.4	492	317.25	-334.66	314.97	439.34	-308.16	215.91	394.73	-365.67	252.53	419.73	-279.8	279.09	421.05	-406.83	144.62	399.18	-386.44	152.51	310.26	-481.39	134.06	345.12	-482.39	103.53	314.51	-486.43	101.99	379.21	-328.89	42.5	426.2	-294.92	37.096	306.65	-229.43	41.043	353.03	22.994	661.03	115.56	134.63	603.22	121.76	65.136	583.23	130.83	87.724	678.81	103.31	140.72	512.92	136.14	148.89	503.64	261.27	123.88	315.25	137.57	220.25	260.2	135.26	157.75	245.2	143.43	186.86	328.91	128.76	261.92	108.5	151.08	266.34	123.16	243.49	206.03	57.939	198.06	221.97	38.575	233.83	219.45	32.21	171.75	390.29	91.615	132	415.42	116.22	245.03	461.27	149.11	195.72	-88.378	1521.8	297.66	-174.47	1264.7	290.16
275	1.1417	91.813	1245.3	272.55	-12.255	1473.6	460.28	-58.803	1457.3	112.89	0.29198	1800.7	268.61	53.038	958.05	430.82	65.326	981.83	179.78	-151.11	1001.5	315.42	-141.18	1004.8	234.9	-52.404	886	484.76	-36.087	897.25	104.07	-28.288	1055.6	465.13	-43.228	1059.5	129.72	-168.05	961.94	274.71	-126.82	646.71	469.14	-78.193	547.04	434.13	-151.94	560.27	454.68	-38.19	648.97	455.41	-159.41	485.53	443.37	-179.21	491.3	316.84	-329.92	316.4	439.22	-304.65	216.91	394.74	-361.71	254.32	419.67	-275.56	279.89	421.05	-404.41	146.91	399.44	-383.59	154.36	310.51	-478.84	137.67	345.28	-480.38	107.29	314.54	-484.55	105.62	379.28	-328.35	42.99	426.2	-294.64	37.282	306.64	-229.25	40.843	352.93	29.912	661.26	115.03	141.47	603.37	121.78	71.908	583.42	130.44	94.719	679.02	103.26	147.33	512.93	136.01	154.77	503.58	261.05	128.75	315.39	137.14	224.55	259.32	135.46	161.85	244.98	143.14	191.93	328.39	128.86	264.18	107.39	151.24	268.48	121.9	243.72	207.36	58.399	198.09	222.63	38.649	233.83	220.09	32.318	171.76	392.04	88.485	132.62	417.32	112.55	245.68	463.91	144.66	196.48	-82.487	1521.6	296.85	-168.29	1264.4	289.54
